<svg width="259" height="65" viewBox="0 0 259 65" fill="none" xmlns="http://www.w3.org/2000/svg">
<path d="M9.13953 63.3557L9.43767 64.5188C44.5919 59.7433 80.4789 57.2732 116.943 57.2732C153.407 57.2732 189.294 59.7433 224.449 64.5188C229.644 54.6466 239.549 47.6389 251.176 46.4874C249.441 46.4817 247.706 46.4773 245.969 46.4773C165.552 46.4773 86.479 52.2341 9.13953 63.3557Z" fill="#154A29"/>
<path d="M26.1158 39.1875L29.5899 53.9321L39.5747 52.6614C43.6062 48.3317 53.7192 32.7518 56.0343 20.4719L43.1956 21.9652C43.8126 24.6256 39.9328 33.4901 35.6701 38.7781L35.5312 38.9506L31.9781 23.3505L23.5831 24.4343L15.5189 42.014L11.9794 26.0035L0 27.6995L7.50289 56.9709L18.8354 55.3703L26.1158 39.1875Z" fill="#154A29"/>
<path d="M65.0152 49.6941L70.874 18.8875L59.0631 20.1462L53.1897 51.0296L65.0152 49.6941Z" fill="#154A29"/>
<path d="M73.1973 10.1989C73.2601 7.23585 70.6158 4.95903 67.6774 5.02891C62.2212 4.91084 57.3092 11.5902 61.5624 15.6751C65.6397 19.3859 73.3039 15.3094 73.1973 10.1989Z" fill="#154A29"/>
<path d="M74.6877 44.7023C81.3088 51.2915 94.5415 47.9467 99.8026 41.8466L101.658 46.1356C107.54 42.6004 119.405 41.6002 124.791 44.3016L127.907 27.9122C128.027 27.9031 137.741 27.1915 137.853 27.1832C136.316 33.9815 139.766 40.0743 146.325 42.2286C158.446 46.3756 173.39 37.3529 173.992 25.2008C174.248 21.4943 173.097 18.2155 170.663 15.7195C163.179 8.382 149.33 10.9707 142.645 18.2066C142.625 18.2086 129.602 19.1626 129.574 19.1649L130.074 16.5269C130.9 12.1839 134.684 10.1924 137.674 9.80694C139.044 9.63024 142.691 9.62911 143.771 10.2354L145.598 0.630649C136.618 -1.54186 121.091 1.66892 119.008 13.8601C119.007 13.8601 115.476 32.4482 115.476 32.4482C115.142 34.2053 113.609 35.4806 111.83 35.4806C109.423 35.7015 107.378 33.3733 107.878 31.0043L113.137 3.35174L101.388 4.30155L98.3977 20.0089C96.6813 17.7649 93.6054 16.58 89.8332 16.5665C75.6159 16.3276 64.7919 34.8103 74.6877 44.7023ZM148.95 28.1765C149.18 22.8345 156.989 18.5393 161.19 22.6905C165.212 27.086 159.872 33.6572 154.444 33.5296C151.274 33.585 148.703 31.3692 148.95 28.1765ZM82.609 33.3292C82.6481 27.8376 90.8057 23.2876 95.3056 27.3718C99.681 31.8752 93.9141 38.73 88.2189 38.6076C85.0956 38.6628 82.4871 36.497 82.609 33.3292Z" fill="#154A29"/>
<path d="M185.597 41.0077L187.781 29.5219C188.908 23.5953 194.737 20.3247 199.912 20.1571C200.616 20.1336 201.552 20.2029 202.163 20.4567L204.14 10.0325C199.606 9.0813 192.999 11.954 190.307 16.2424L191.348 10.7664L179.695 11.1797L173.933 41.4687L185.597 41.0077Z" fill="#154A29"/>
<path d="M209.645 28.3677L209.674 28.3918C210.509 29.06 211.601 30.3196 210.865 31.3783C209.274 33.222 200.695 31.7405 198.729 30.1487L196.798 40.2975C203.119 41.6805 223.778 42.1983 224.079 30.7828C224.172 28.8181 223.323 26.931 222.011 25.5923C220.938 24.4604 219.725 23.7086 218.34 22.9119C217.391 22.3512 216.084 21.5081 215.798 20.5728C215.277 18.6923 217.928 18.2192 219.42 18.1422C222.301 17.9516 227.03 18.5152 228.348 19.5484L230.067 10.513C221.709 7.9595 206.815 9.31675 204.736 18.3002C203.427 23.047 206.595 26.1836 209.645 28.3677Z" fill="#154A29"/>
<path d="M247.429 17.8465C250.309 17.6559 255.038 18.2195 256.357 19.2527L258.076 10.2174C249.718 7.66385 234.824 9.02109 232.745 18.0045C231.435 22.7514 234.603 25.888 237.654 28.072L237.683 28.0961C238.518 28.7643 239.61 30.0239 238.873 31.0826C237.283 32.9263 228.703 31.4448 226.737 29.8531L224.807 40.0018C231.127 41.3848 251.787 41.9027 252.088 30.4872C252.181 28.5225 251.332 26.6353 250.02 25.2966C248.947 24.1647 247.734 23.4129 246.349 22.6162C245.399 22.0556 244.092 21.2125 243.807 20.2772C243.285 18.3966 245.937 17.9236 247.429 17.8465Z" fill="#154A29"/>
</svg>
